<?xml version="1.0" encoding="UTF-8"?>
<!DOCTYPE svg PUBLIC "-//W3C//DTD SVG 1.1//EN" "http://www.w3.org/Graphics/SVG/1.1/DTD/svg11.dtd">
<!-- Creator: CorelDRAW -->
<svg xmlns="http://www.w3.org/2000/svg" xml:space="preserve" width="0.2032cm" height="0.2032cm" version="1.1" style="shape-rendering:geometricPrecision; text-rendering:geometricPrecision; image-rendering:optimizeQuality; fill-rule:evenodd; clip-rule:evenodd"
viewBox="0 0 1.11 1.11"
 xmlns:xlink="http://www.w3.org/1999/xlink"
 xmlns:xodm="http://www.corel.com/coreldraw/odm/2003">
 <defs>
  <style type="text/css">
   <![CDATA[
    .fil0 {fill:#022847}
   ]]>
  </style>
 </defs>
 <g id="Capa_x0020_1">
  <metadata id="CorelCorpID_0Corel-Layer"/>
  <path class="fil0" d="M1.11 0.51c0,-0.14 -0.17,-0.33 -0.33,-0.33 -0.11,0 -0.19,0.05 -0.19,0.14 0,0.11 0.1,0.15 0.3,0.26 0.09,0.05 0.17,0.09 0.22,0.14l0 -0.21zm-0.96 -0.51l0.81 0c0.08,0 0.15,0.07 0.15,0.15l0 0c-0,0.09 -0.06,0.07 -0.13,0.04 -0.05,-0.03 -0.12,-0.05 -0.25,-0.05 -0.2,0 -0.38,0.08 -0.38,0.25 0,0.15 0.14,0.23 0.3,0.31 0.15,0.08 0.26,0.14 0.26,0.25 0,0.1 -0.09,0.15 -0.21,0.15 -0.27,0 -0.31,-0.17 -0.33,-0.28 -0.01,-0.05 -0.02,-0.05 -0.02,-0 -0,0.15 -0,0.23 -0.01,0.29l-0.2 0c-0.08,0 -0.15,-0.07 -0.15,-0.15l0 -0.81c0,-0.08 0.07,-0.15 0.15,-0.15l0 0z"/>
 </g>
</svg>
